<svg width="163" height="33" viewBox="0 0 163 33" fill="none" xmlns="http://www.w3.org/2000/svg">
<g clip-path="url(#clip0_14_7)">
<path d="M31.9958 12.038C32.0993 12.046 32.0691 12.0457 32.1658 12.1244C32.2344 12.5937 32.3796 14.9356 32.2244 15.1654C31.963 15.5525 29.2122 17.3886 28.7338 17.7243L23.8373 21.2064L20.7674 23.3837C20.2793 23.7285 19.3597 24.4172 18.8535 24.6491C17.7488 24.1903 14.8717 21.6238 13.4884 20.715C12.8535 21.0638 12.1119 21.6496 11.4969 22.061C9.75471 23.2263 7.97795 24.6656 6.22296 25.7805C7.86298 27.775 10.6778 29.3593 13.164 29.9143C18.8466 31.1648 24.6861 28.6217 27.6968 23.5854C28.0152 23.0561 28.2259 22.6924 28.4774 22.1546C28.7252 21.625 29.1738 19.9157 29.4571 19.6278C30.0658 19.0092 31.4831 18.1572 32.256 17.6565C31.8972 19.832 31.9828 20.5049 31.0432 22.7611C29.6841 26.2012 27.0519 29.099 23.8634 30.8956C20.1593 32.963 15.7982 33.4646 11.7304 32.2909C8.6243 31.3799 5.84952 29.5687 3.74816 27.0805C3.45342 26.7346 2.41208 25.5752 2.53841 25.156C3.1301 24.393 6.73257 21.992 7.69934 21.3061C8.91182 20.4435 10.1287 19.5871 11.3497 18.7369C11.8878 18.3623 12.9476 17.5609 13.5175 17.3513C15.0732 17.9428 17.4505 20.3273 18.9097 21.2417C19.8689 20.5935 20.9468 19.7768 21.9011 19.096L28.0668 14.7246C29.1595 13.9536 30.8628 12.6871 31.9958 12.038Z" fill="black"/>
<path d="M15.2285 0.0343445C15.6339 -0.00496088 16.2127 -0.00584454 16.6158 0.0084751C20.9478 0.183847 25.0406 2.06608 28.0207 5.25353C28.7724 6.07193 31.0952 9.15195 31.0589 10.1525C30.888 10.545 29.4054 11.4858 28.9578 11.7965C28.0557 9.85014 27.6863 8.84423 26.1277 7.14655C23.6509 4.45334 20.2098 2.87918 16.5763 2.77712C13.1626 2.65319 9.55657 4.04255 7.05615 6.39456C3.50537 9.50234 1.76762 15.0507 2.99012 19.6333C3.14211 20.203 3.57878 21.2528 3.58414 21.7821C3.50636 22.0478 1.76802 23.2748 1.50938 23.2426C0.982888 22.6366 0.231167 19.2778 0.121026 18.43C-0.394171 14.1853 0.748227 9.90476 3.30482 6.50011C5.8241 3.19186 9.08905 1.19883 13.1217 0.344839C13.7689 0.207771 14.5649 0.122325 15.2285 0.0343445Z" fill="black"/>
</g>
<path d="M40.8459 7.02332H55.7842V9.72595H49.65V25.9286H46.9801V9.72595H40.8459V7.02332Z" fill="black"/>
<path d="M58.5984 14.4852V25.9286H56.0457V11.8881H58.5984V14.3666C58.6157 14.0238 58.6939 13.703 58.8328 13.4042C58.9717 13.0966 59.154 12.8329 59.3798 12.6132C59.6142 12.3846 59.8834 12.2089 60.1873 12.0858C60.4911 11.954 60.8167 11.8881 61.164 11.8881H63.886C64.242 11.8881 64.5719 11.9584 64.8758 12.099C65.1884 12.2308 65.4619 12.4154 65.6963 12.6527C65.9308 12.8812 66.1131 13.1537 66.2433 13.4701C66.3822 13.7865 66.4517 14.1249 66.4517 14.4852V16.8583H63.886V14.4852H58.5984Z" fill="black"/>
<path d="M68.5756 19.7982C68.5756 19.4379 68.6407 19.1039 68.771 18.7963C68.9099 18.4799 69.0922 18.203 69.318 17.9657C69.5524 17.7284 69.8259 17.5438 70.1385 17.412C70.4511 17.2714 70.781 17.201 71.1283 17.201H77.7444V14.4852H69.3701V11.8881H77.7444C78.1004 11.8881 78.4346 11.9584 78.7472 12.099C79.0598 12.2308 79.3289 12.4154 79.5547 12.6527C79.7891 12.8812 79.9714 13.1537 80.1017 13.4701C80.2406 13.7865 80.3101 14.1249 80.3101 14.4852V25.9286H77.7444V23.5555C77.7183 23.8807 77.6315 24.1884 77.4839 24.4784C77.3363 24.7684 77.1453 25.0233 76.9109 25.243C76.6851 25.454 76.4246 25.621 76.1294 25.744C75.8342 25.8671 75.5216 25.9286 75.1917 25.9286H71.1283C70.781 25.9286 70.4511 25.8627 70.1385 25.7308C69.8259 25.5902 69.5524 25.4056 69.318 25.1771C69.0922 24.9398 68.9099 24.663 68.771 24.3466C68.6407 24.0302 68.5756 23.6918 68.5756 23.3314V19.7982ZM71.1283 23.3314H77.7444V19.7982H71.1283V23.3314Z" fill="black"/>
<path d="M83.528 14.4852C83.528 14.1249 83.5931 13.7865 83.7233 13.4701C83.8623 13.1537 84.0446 12.8812 84.2703 12.6527C84.5048 12.4154 84.7783 12.2308 85.0908 12.099C85.4034 11.9584 85.7333 11.8881 86.0806 11.8881H93.2307V6.48279H95.7964V25.9286H93.2307V23.5555C93.2047 23.8807 93.1178 24.1884 92.9702 24.4784C92.8226 24.7684 92.6316 25.0233 92.3972 25.243C92.1714 25.454 91.911 25.621 91.6158 25.744C91.3205 25.8671 91.008 25.9286 90.678 25.9286H86.0806C85.7333 25.9286 85.4034 25.8627 85.0908 25.7308C84.7783 25.5902 84.5048 25.4056 84.2703 25.1771C84.0446 24.9398 83.8623 24.663 83.7233 24.3466C83.5931 24.0302 83.528 23.6918 83.528 23.3314V14.4852ZM86.0806 23.3314H93.2307V14.4852H86.0806V23.3314Z" fill="black"/>
<path d="M110.736 20.2333H101.554V23.3314H110.736V25.9286H101.554C101.207 25.9286 100.877 25.8627 100.564 25.7308C100.252 25.5902 99.9781 25.4056 99.7436 25.1771C99.5179 24.9398 99.3356 24.663 99.1967 24.3466C99.0664 24.0302 99.0013 23.6918 99.0013 23.3314V14.4852C99.0013 14.1249 99.0664 13.7865 99.1967 13.4701C99.3356 13.1537 99.5179 12.8812 99.7436 12.6527C99.9781 12.4154 100.252 12.2308 100.564 12.099C100.877 11.9584 101.207 11.8881 101.554 11.8881H108.17C108.526 11.8881 108.86 11.9584 109.173 12.099C109.485 12.2308 109.755 12.4154 109.98 12.6527C110.215 12.8812 110.397 13.1537 110.527 13.4701C110.666 13.7865 110.736 14.1249 110.736 14.4852V20.2333ZM101.554 14.4852V17.6361H108.17V14.4852H101.554Z" fill="black"/>
<path d="M116.506 6.48279V25.9286H113.954V6.48279H116.506Z" fill="black"/>
<path d="M131.446 20.2333H122.264V23.3314H131.446V25.9286H122.264C121.917 25.9286 121.587 25.8627 121.274 25.7308C120.961 25.5902 120.688 25.4056 120.454 25.1771C120.228 24.9398 120.045 24.663 119.907 24.3466C119.776 24.0302 119.711 23.6918 119.711 23.3314V14.4852C119.711 14.1249 119.776 13.7865 119.907 13.4701C120.045 13.1537 120.228 12.8812 120.454 12.6527C120.688 12.4154 120.961 12.2308 121.274 12.099C121.587 11.9584 121.917 11.8881 122.264 11.8881H128.88C129.236 11.8881 129.57 11.9584 129.883 12.099C130.195 12.2308 130.465 12.4154 130.69 12.6527C130.925 12.8812 131.107 13.1537 131.237 13.4701C131.376 13.7865 131.446 14.1249 131.446 14.4852V20.2333ZM122.264 14.4852V17.6361H128.88V14.4852H122.264Z" fill="black"/>
<path d="M146.932 25.9286H144.366V14.4852H137.216V25.9286H134.664V11.8881H137.216V14.3666C137.234 14.0238 137.312 13.703 137.451 13.4042C137.59 13.0966 137.772 12.8329 137.998 12.6132C138.232 12.3846 138.501 12.2089 138.805 12.0858C139.109 11.954 139.435 11.8881 139.782 11.8881H144.366C144.722 11.8881 145.057 11.9584 145.369 12.099C145.682 12.2308 145.951 12.4154 146.177 12.6527C146.411 12.8812 146.593 13.1537 146.724 13.4701C146.863 13.7865 146.932 14.1249 146.932 14.4852V25.9286Z" fill="black"/>
<path d="M158.511 23.3314V20.0751H152.429C152.073 20.0751 151.739 20.0092 151.426 19.8773C151.114 19.7367 150.84 19.5521 150.606 19.3236C150.38 19.0863 150.198 18.8094 150.059 18.493C149.928 18.1766 149.863 17.8383 149.863 17.4779V14.4852C149.863 14.1249 149.928 13.7865 150.059 13.4701C150.198 13.1537 150.38 12.8812 150.606 12.6527C150.84 12.4154 151.114 12.2308 151.426 12.099C151.739 11.9584 152.073 11.8881 152.429 11.8881H160.543V14.4852H152.429V17.4779H158.511C158.867 17.4779 159.197 17.5482 159.501 17.6888C159.814 17.8207 160.087 18.0052 160.321 18.2426C160.556 18.4711 160.738 18.7435 160.868 19.0599C161.007 19.3763 161.077 19.7147 161.077 20.0751V23.3314C161.077 23.6918 161.007 24.0302 160.868 24.3466C160.738 24.663 160.556 24.9398 160.321 25.1771C160.087 25.4056 159.814 25.5902 159.501 25.7308C159.197 25.8627 158.867 25.9286 158.511 25.9286H149.863V23.3314H158.511Z" fill="black"/>
<defs>
<clipPath id="clip0_14_7">
<rect width="32.6" height="33" fill="white"/>
</clipPath>
</defs>
</svg>
